<svg width="73" height="73" viewBox="0 0 73 73" fill="none" xmlns="http://www.w3.org/2000/svg">
<g clip-path="url(#clip0_31_56)">
<path d="M60.3862 0.207275H12.2925C5.69095 0.207275 0.339355 5.68731 0.339355 12.4473V59.8521C0.339355 66.612 5.69095 72.0921 12.2925 72.0921H60.3862C66.9878 72.0921 72.3394 66.612 72.3394 59.8521V12.4473C72.3394 5.68731 66.9878 0.207275 60.3862 0.207275Z" fill="#330000"/>
<path d="M35.2294 43.3468H24.0722L21.8021 50.5679C21.7383 50.8395 21.495 51.0264 21.2225 51.013H15.5714C15.2491 51.013 15.1364 50.8317 15.2333 50.469L24.8932 21.9805C24.9899 21.6838 25.0865 21.3458 25.1831 20.9665C25.3095 20.3066 25.3741 19.6359 25.3763 18.9635C25.363 18.8682 25.3943 18.772 25.4608 18.7038C25.5273 18.6357 25.6213 18.6036 25.7144 18.6172H33.394C33.619 18.6172 33.7478 18.6997 33.7804 18.8646L44.7446 50.5184C44.8412 50.8484 44.7445 51.0133 44.4547 51.013H38.1757C37.9526 51.0383 37.7458 50.8901 37.6927 50.6668L35.2294 43.3468ZM25.8109 37.115H33.4423L33.3338 36.7472L33.1589 36.1649L33.0344 35.7561L32.8356 35.1122L32.4128 33.7564L32.041 32.5545L31.0756 29.4241C30.8272 28.6186 30.5966 27.8374 30.3837 27.0803L30.207 26.444L30.0005 25.6913L29.6854 24.5251C29.6656 24.451 29.646 24.3777 29.6267 24.3051H29.5784C29.3367 25.4924 29.0423 26.6678 28.6963 27.8276L27.9797 30.1877L27.5854 31.4918L27.1875 32.812C27.1156 33.0505 27.0439 33.2863 26.9724 33.5193L26.7586 34.2101L26.546 34.8844L26.3345 35.5423L26.1242 36.1837C26.0543 36.3948 25.9846 36.6031 25.9151 36.8087L25.8109 37.115ZM51.2645 23.86C50.2681 23.9009 49.3019 23.5052 48.608 22.7719C47.917 22.0078 47.5519 20.9932 47.5936 19.9527C47.5581 18.921 47.9533 17.9228 48.6804 17.2077C49.3746 16.5253 50.2984 16.1448 51.2581 16.1431L51.361 16.1443C52.5203 16.1443 53.43 16.4988 54.09 17.2077C54.763 17.9517 55.1192 18.9393 55.0801 19.9527C55.1209 20.9976 54.7462 22.0148 54.0417 22.7719C53.3294 23.4908 52.3648 23.8834 51.3678 23.8635L51.2645 23.86ZM47.9317 50.5184V26.8769C47.9317 26.5802 48.06 26.4318 48.3181 26.4318H54.2591C54.5165 26.4318 54.6453 26.5802 54.6455 26.8769V50.5184C54.6455 50.8484 54.5167 51.0133 54.2591 51.013H48.3665C48.092 51.013 47.9474 50.8651 47.9329 50.5691L47.9317 50.5184Z" fill="#FF9A00"/>
</g>
<defs>
<clipPath id="clip0_31_56">
<rect width="72" height="72" fill="white" transform="translate(0.339355 0.207275)"/>
</clipPath>
</defs>
</svg>
