<svg width="73" height="73" viewBox="0 0 73 73" fill="none" xmlns="http://www.w3.org/2000/svg">
<g clip-path="url(#clip0_31_64)">
<path d="M60.3862 0.207275H12.2925C5.69095 0.207275 0.339355 5.68731 0.339355 12.4473V59.8521C0.339355 66.612 5.69095 72.0921 12.2925 72.0921H60.3862C66.9878 72.0921 72.3394 66.612 72.3394 59.8521V12.4473C72.3394 5.68731 66.9878 0.207275 60.3862 0.207275Z" fill="#470137"/>
<path d="M38.1894 19.1118L29.2055 34.2958L38.8172 50.4195C38.8789 50.5323 38.8962 50.665 38.8656 50.7904C38.8506 50.8439 38.8186 50.8572 38.7694 50.8591L38.7146 50.8584L38.6484 50.8566C38.6124 50.8564 38.5721 50.8583 38.5275 50.8658L31.5976 50.8656L31.4613 50.8636C31.0877 50.8535 30.8188 50.7989 30.6546 50.5184C30.01 49.2325 29.366 47.9548 28.7226 46.6854C28.1586 45.575 27.5642 44.4453 26.9395 43.2964L26.6699 42.8028C25.9454 41.4844 25.2289 40.149 24.5205 38.7966H24.4722C23.8276 40.1157 23.1595 41.4347 22.4677 42.7533C21.775 44.0725 21.0907 45.3832 20.415 46.6854C19.7388 47.9883 19.0465 49.2824 18.3381 50.5679C18.2243 50.8297 18.0351 50.8844 17.7713 50.8936L17.6618 50.8953H11.0448L11.0162 50.8961L10.9216 50.9049C10.869 50.9081 10.8376 50.8965 10.8275 50.8152C10.8093 50.6946 10.8351 50.5713 10.9 50.4689L20.2218 34.7903L11.1414 19.0623C11.0448 18.931 11.0287 18.8239 11.093 18.7409C11.1653 18.6553 11.2727 18.6095 11.3829 18.6172H18.1931C18.3416 18.6089 18.4901 18.6342 18.6279 18.6915C18.7434 18.7585 18.8425 18.8515 18.9176 18.9635C19.4973 20.2826 20.1413 21.6015 20.8496 22.9202C21.5576 24.2394 22.274 25.5418 22.999 26.8275C23.7235 28.1134 24.3917 29.4158 25.0035 30.7347H25.0518C25.6955 29.3831 26.3475 28.0642 27.008 26.778C27.6676 25.4921 28.3438 24.1979 29.0365 22.8954C29.7286 21.5933 30.3968 20.2991 31.041 19.0129C31.078 18.8909 31.1444 18.7803 31.2342 18.6915C31.3534 18.6295 31.4875 18.6037 31.6206 18.6172H37.9479C38.0735 18.5855 38.2039 18.6471 38.2618 18.7656C38.3144 18.8734 38.2943 19.002 38.215 19.0875L38.1894 19.1118ZM52.3842 51.5039L52.0509 51.5076C49.8278 51.5423 47.6251 51.0692 45.6028 50.1228C43.719 49.23 42.1443 47.7726 41.0869 45.9435C40.0206 44.13 39.4734 41.8706 39.4457 39.1653L39.4446 38.945C39.4265 36.675 39.9929 34.4402 41.0869 32.4658C42.1824 30.5106 43.7792 28.9009 45.7029 27.8099L45.8686 27.7177C47.9613 26.5307 50.4889 25.9372 53.4516 25.9372L53.5813 25.9388L53.7291 25.9434L53.8952 25.9511L54.0795 25.962L54.3895 25.9843L54.7405 26.0132L54.9972 26.0361V16.2927C54.9972 16.0623 55.0939 15.9465 55.2871 15.9465H61.3728C61.4526 15.9348 61.5331 15.9622 61.5901 16.0206C61.6472 16.079 61.674 16.1614 61.6627 16.2432V45.4736C61.6627 45.9645 61.6811 46.4929 61.7181 47.0588L61.8081 48.3419L61.8559 49.0841C61.868 49.2944 61.7529 49.4907 61.566 49.5787C59.996 50.2492 58.3607 50.7466 56.6878 51.0624C55.2674 51.3309 53.828 51.4785 52.3842 51.5039ZM54.9972 45.3747V31.8723C54.7361 31.7999 54.4695 31.7503 54.2003 31.7239C53.8713 31.69 53.5408 31.6735 53.2101 31.6745C52.038 31.6625 50.8797 31.9336 49.8291 32.4658C48.8058 32.9867 47.9321 33.7706 47.2934 34.7409C46.6558 35.696 46.3262 36.9431 46.3043 38.4822L46.3032 38.6482C46.2797 39.7264 46.4516 40.7996 46.8103 41.8136C47.1022 42.6306 47.5637 43.373 48.1628 43.9898C48.7364 44.5573 49.4308 44.9806 50.1913 45.2263C50.9947 45.4927 51.8344 45.6262 52.6788 45.6221C53.1294 45.6221 53.548 45.6055 53.9346 45.5725C54.2431 45.5487 54.5489 45.4966 54.8481 45.4168L54.9972 45.3747Z" fill="#FF61F6"/>
</g>
<defs>
<clipPath id="clip0_31_64">
<rect width="72" height="72" fill="white" transform="translate(0.339355 0.207275)"/>
</clipPath>
</defs>
</svg>
