<svg width="73" height="73" viewBox="0 0 73 73" fill="none" xmlns="http://www.w3.org/2000/svg">
<mask id="mask0_31_36" style="mask-type:luminance" maskUnits="userSpaceOnUse" x="0" y="0" width="73" height="73">
<path d="M72.3394 0.207275H0.339355V72.2073H72.3394V0.207275Z" fill="white"/>
</mask>
<g mask="url(#mask0_31_36)">
<path d="M59.5894 0.207275H13.0893C6.04772 0.207275 0.339355 6.06201 0.339355 13.2842V59.1304C0.339355 66.3525 6.04772 72.2073 13.0893 72.2073H59.5894C66.631 72.2073 72.3394 66.3525 72.3394 59.1304V13.2842C72.3394 6.06201 66.631 0.207275 59.5894 0.207275Z" fill="#001E36"/>
<path d="M16.5518 50.6979V19.0428C16.5518 18.8121 16.6484 18.696 16.8416 18.696C17.3563 18.696 17.8261 18.6883 18.5348 18.6713C19.2428 18.655 20.0075 18.6385 20.829 18.6218C21.6502 18.6054 22.5196 18.5889 23.4373 18.5722C24.3549 18.5559 25.2645 18.5477 26.1662 18.5473C28.6129 18.5473 30.6737 18.8611 32.3485 19.4886C33.8594 20.0128 35.2372 20.8758 36.3817 22.015C37.3519 23.0025 38.1017 24.1941 38.5793 25.5076C39.0311 26.7858 39.26 28.1357 39.2556 29.4954C39.2556 32.138 38.6598 34.3177 37.4685 36.0344C36.2692 37.7584 34.5834 39.0637 32.6384 39.7746C30.6098 40.551 28.3555 40.8142 25.8764 40.8142C25.1678 40.8142 24.6686 40.806 24.3791 40.7895C24.0893 40.7732 23.6547 40.7649 23.0751 40.7647V50.6484C23.0835 50.7089 23.0781 50.7707 23.0592 50.8287C23.0403 50.8868 23.0086 50.9395 22.9664 50.9827C22.9242 51.026 22.8727 51.0586 22.8161 51.0779C22.7595 51.0973 22.6993 51.1029 22.6403 51.0942H16.8899C16.6643 51.0942 16.5518 50.9625 16.5518 50.6979ZM23.0751 24.6406V34.9652C23.4931 34.9985 23.8795 35.015 24.2342 35.0147H25.8281C27.0009 35.0108 28.1659 34.82 29.2816 34.4493C30.2385 34.1577 31.0935 33.5903 31.7449 32.8145C32.3727 32.0552 32.6867 30.9984 32.6868 29.6441C32.7122 28.6857 32.4692 27.7401 31.9863 26.9194C31.4787 26.1257 30.7451 25.5117 29.8853 25.1608C28.7626 24.7132 27.5633 24.5026 26.3594 24.5416C25.5865 24.5416 24.9023 24.5498 24.3068 24.5663C23.7105 24.5834 23.3 24.6081 23.0751 24.6406Z" fill="#31A8FF"/>
<path d="M57.9307 33.0879C57.023 32.6096 56.0562 32.2596 55.0569 32.0476C53.9556 31.7885 52.8298 31.6556 51.7 31.6512C51.0889 31.6343 50.4786 31.7094 49.8887 31.8743C49.5132 31.9599 49.1795 32.1794 48.9468 32.4935C48.7894 32.7447 48.7056 33.037 48.7054 33.3356C48.7142 33.6253 48.8161 33.9039 48.9952 34.1282C49.2773 34.4667 49.6221 34.7445 50.0094 34.9456C50.698 35.3259 51.4077 35.6651 52.1346 35.9612C53.7556 36.5177 55.3046 37.2745 56.7473 38.2151C57.7301 38.8513 58.5433 39.728 59.114 40.7664C59.5939 41.7496 59.8341 42.8375 59.8144 43.9369C59.8433 45.3885 59.4388 46.8145 58.6552 48.0238C57.8162 49.2513 56.651 50.2056 55.2983 50.7731C53.8327 51.4334 52.0214 51.7637 49.8646 51.7639C48.4944 51.7781 47.1264 51.6453 45.7832 51.3676C44.7249 51.1686 43.6946 50.8358 42.7161 50.3768C42.6105 50.3209 42.5226 50.2353 42.4628 50.13C42.4029 50.0247 42.3735 49.9041 42.378 49.7824V44.4322C42.3722 44.3799 42.3804 44.3268 42.4016 44.2788C42.423 44.2308 42.4566 44.1897 42.4989 44.1597C42.5404 44.1357 42.588 44.1252 42.6354 44.1297C42.6829 44.1341 42.7279 44.1532 42.7645 44.1846C43.9201 44.8834 45.1748 45.3932 46.4835 45.6955C47.6371 45.992 48.8203 46.1499 50.0094 46.1661C51.1362 46.1661 51.9653 46.0174 52.4968 45.7202C52.7369 45.6075 52.94 45.4259 53.0814 45.1973C53.2229 44.9687 53.2967 44.703 53.2939 44.4322C53.2939 44.0034 53.0524 43.5906 52.5694 43.1937C52.0864 42.7975 51.1043 42.3186 49.623 41.7571C48.1064 41.2157 46.6685 40.4658 45.3485 39.528C44.4044 38.8545 43.6269 37.9638 43.0784 36.9271C42.6034 35.951 42.3632 34.8723 42.378 33.7815C42.3753 32.4707 42.7264 31.1848 43.3923 30.0661C44.1515 28.8342 45.2418 27.8535 46.5319 27.2424C47.9484 26.5163 49.7194 26.1531 51.8449 26.1525C53.0897 26.1423 54.3333 26.2333 55.564 26.4249C56.4552 26.541 57.3265 26.7826 58.1532 27.1433C58.2187 27.1626 58.279 27.1972 58.3293 27.2445C58.3796 27.2918 58.4186 27.3504 58.4429 27.4158C58.4756 27.5367 58.4918 27.6617 58.4913 27.7873V32.7906C58.4946 32.8489 58.483 32.907 58.4576 32.9591C58.4322 33.0113 58.3938 33.0557 58.3464 33.0879C58.2818 33.1209 58.2107 33.138 58.1385 33.138C58.0664 33.138 57.9953 33.1209 57.9307 33.0879Z" fill="#31A8FF"/>
</g>
</svg>
