<svg width="44" height="33" viewBox="0 0 44 33" fill="none" xmlns="http://www.w3.org/2000/svg">
<path d="M0.69165 32.1753V0.520231C0.69165 0.289561 0.788264 0.173461 0.98149 0.173461C1.49614 0.173461 1.96596 0.165721 2.67471 0.148711C3.38268 0.132421 4.14742 0.115951 4.96894 0.0992109C5.7901 0.0828309 6.65953 0.0663614 7.57722 0.0496214C8.49482 0.0333314 9.40443 0.0251403 10.3061 0.0247803C12.7528 0.0247803 14.8136 0.338521 16.4884 0.966091C17.9993 1.49025 19.377 2.35326 20.5216 3.49248C21.4918 4.47996 22.2416 5.67156 22.7192 6.98502C23.171 8.26329 23.3999 9.61311 23.3955 10.9728C23.3955 13.6154 22.7997 15.7951 21.6084 17.5119C20.4091 19.2358 18.7233 20.5412 16.7783 21.2521C14.7497 22.0284 12.4954 22.2917 10.0163 22.2917C9.30765 22.2917 8.80852 22.2835 8.51895 22.2669C8.2292 22.2506 7.79457 22.2424 7.21498 22.2422V32.1258C7.22341 32.1864 7.21797 32.2481 7.1991 32.3062C7.18024 32.3642 7.14847 32.4169 7.10626 32.4601C7.06405 32.5034 7.01263 32.536 6.95603 32.5554C6.89944 32.5747 6.83924 32.5803 6.78018 32.5717H1.02975C0.804146 32.5717 0.69165 32.44 0.69165 32.1753ZM7.21498 6.11805V16.4427C7.63302 16.476 8.01939 16.4924 8.37407 16.4922H9.96796C11.1407 16.4882 12.3058 16.2974 13.4215 15.9267C14.3784 15.6352 15.2334 15.0677 15.8848 14.2919C16.5126 13.5326 16.8266 12.4758 16.8267 11.1215C16.8521 10.1632 16.6091 9.21756 16.1262 8.39685C15.6186 7.60314 14.885 6.98916 14.0252 6.63825C12.9025 6.19068 11.7032 5.98008 10.4993 6.01905C9.72639 6.01905 9.0422 6.02724 8.44664 6.04371C7.85038 6.06081 7.43989 6.08556 7.21498 6.11805Z" fill="#31A8FF"/>
<path d="M41.95 13.8986C41.0423 13.4202 40.0755 13.0703 39.0761 12.8583C37.9749 12.5992 36.849 12.4662 35.7193 12.4619C35.1082 12.445 34.4979 12.5201 33.908 12.6849C33.5325 12.7706 33.1988 12.99 32.9661 13.3041C32.8087 13.5553 32.7249 13.8476 32.7247 14.1463C32.7335 14.436 32.8354 14.7146 33.0145 14.9389C33.2966 15.2774 33.6413 15.5552 34.0287 15.7563C34.7173 16.1366 35.427 16.4757 36.1539 16.7718C37.7749 17.3284 39.3239 18.0852 40.7666 19.0258C41.7494 19.662 42.5626 20.5387 43.1333 21.577C43.6132 22.5603 43.8534 23.6482 43.8337 24.7475C43.8626 26.1992 43.4581 27.6252 42.6745 28.8344C41.8355 30.062 40.6703 31.0163 39.3175 31.5838C37.8519 32.2441 36.0407 32.5744 33.8839 32.5746C32.5137 32.5888 31.1457 32.456 29.8025 32.1783C28.7442 31.9792 27.7139 31.6465 26.7354 31.1875C26.6298 31.1316 26.5419 31.046 26.4821 30.9407C26.4222 30.8354 26.3928 30.7148 26.3973 30.593V25.2429C26.3915 25.1905 26.3997 25.1375 26.4209 25.0895C26.4422 25.0415 26.4759 25.0004 26.5181 24.9704C26.5597 24.9464 26.6073 24.9358 26.6547 24.9403C26.7022 24.9447 26.7472 24.9639 26.7838 24.9952C27.9393 25.6941 29.1941 26.2038 30.5028 26.5061C31.6564 26.8027 32.8396 26.9606 34.0287 26.9768C35.1555 26.9768 35.9846 26.8281 36.5161 26.5309C36.7562 26.4182 36.9593 26.2366 37.1007 26.008C37.2422 25.7794 37.316 25.5136 37.3132 25.2429C37.3132 24.8141 37.0717 24.4013 36.5887 24.0044C36.1057 23.6081 35.1236 23.1293 33.6423 22.5677C32.1257 22.0264 30.6878 21.2765 29.3677 20.3386C28.4236 19.6652 27.6462 18.7744 27.0977 17.7378C26.6227 16.7617 26.3825 15.683 26.3973 14.5921C26.3946 13.2814 26.7457 11.9954 27.4116 10.8767C28.1708 9.64482 29.2611 8.66418 30.5511 8.05308C31.9677 7.32696 33.7387 6.96372 35.8642 6.96318C37.109 6.95292 38.3526 7.044 39.5832 7.23561C40.4745 7.35162 41.3458 7.59327 42.1725 7.95399C42.238 7.97325 42.2983 8.0079 42.3486 8.05515C42.3989 8.10249 42.4378 8.16108 42.4622 8.22642C42.4949 8.34738 42.5111 8.47239 42.5106 8.59794V13.6013C42.5139 13.6595 42.5022 13.7177 42.4769 13.7698C42.4514 13.822 42.4131 13.8664 42.3657 13.8986C42.3011 13.9315 42.23 13.9487 42.1578 13.9487C42.0857 13.9487 42.0145 13.9315 41.95 13.8986Z" fill="#31A8FF"/>
</svg>
