<svg width="72" height="56" viewBox="0 0 72 56" fill="none" xmlns="http://www.w3.org/2000/svg">
<path d="M38.0244 13.5893L29.0405 28.7732L38.6522 44.897C38.7139 45.0098 38.7312 45.1424 38.7005 45.2678C38.6855 45.3213 38.6535 45.3346 38.6044 45.3366L38.5496 45.3358L38.4833 45.334C38.4473 45.3339 38.4071 45.3357 38.3625 45.3432L31.4325 45.3431L31.2963 45.3411C30.9226 45.331 30.6537 45.2763 30.4895 44.9958C29.845 43.7099 29.201 42.4323 28.5575 41.1628C27.9936 40.0524 27.3992 38.9227 26.7745 37.7738L26.5048 37.2802C25.7803 35.9618 25.0639 34.6264 24.3555 33.274H24.3071C23.6626 34.5932 22.9944 35.9121 22.3026 37.2308C21.6099 38.5499 20.9257 39.8606 20.25 41.1628C19.5738 42.4657 18.8815 43.7599 18.1731 45.0453C18.0592 45.3072 17.8701 45.3618 17.6063 45.371L17.4968 45.3727H10.8798L10.8512 45.3735L10.7565 45.3823C10.704 45.3855 10.6726 45.3739 10.6624 45.2926C10.6442 45.172 10.6701 45.0487 10.7349 44.9464L20.0568 29.2678L10.9763 13.5398C10.8798 13.4084 10.8637 13.3013 10.928 13.2183C11.0003 13.1327 11.1076 13.0869 11.2179 13.0946H18.0281C18.1766 13.0863 18.3251 13.1116 18.4629 13.1689C18.5783 13.2359 18.6774 13.3289 18.7526 13.4409C19.3322 14.76 19.9762 16.0789 20.6846 17.3976C21.3925 18.7168 22.109 20.0192 22.834 21.3049C23.5585 22.5908 24.2266 23.8932 24.8384 25.2122H24.8868C25.5304 23.8605 26.1825 22.5416 26.8429 21.2555C27.5025 19.9695 28.1787 18.6753 28.8714 17.3729C29.5636 16.0707 30.2317 14.7765 30.8759 13.4903C30.913 13.3683 30.9794 13.2577 31.0691 13.1689C31.1884 13.1069 31.3225 13.0811 31.4556 13.0946H37.7828C37.9085 13.0629 38.0388 13.1245 38.0967 13.243C38.1493 13.3508 38.1293 13.4794 38.0499 13.565L38.0244 13.5893ZM52.2191 45.9814L51.8859 45.9851C49.6628 46.0197 47.46 45.5466 45.4378 44.6002C43.554 43.7074 41.9792 42.25 40.9218 40.4209C39.8555 38.6074 39.3084 36.348 39.2807 33.6427L39.2796 33.4224C39.2614 31.1524 39.8279 28.9176 40.9218 26.9432C42.0174 24.988 43.6142 23.3783 45.5379 22.2874L45.7035 22.1951C47.7962 21.0081 50.3239 20.4146 53.2866 20.4146L53.4162 20.4162L53.5641 20.4208L53.7301 20.4285L53.9144 20.4394L54.2244 20.4617L54.5754 20.4906L54.8321 20.5136V10.7701C54.8321 10.5398 54.9288 10.4239 55.122 10.4239H61.2077C61.2875 10.4122 61.3681 10.4397 61.4251 10.498C61.4821 10.5564 61.509 10.6388 61.4976 10.7206V39.951C61.4976 40.4419 61.5161 40.9703 61.553 41.5362L61.6431 42.8194L61.6908 43.5615C61.703 43.7718 61.5879 43.9681 61.401 44.0561C59.8309 44.7266 58.1956 45.224 56.5227 45.5398C55.1024 45.8083 53.6629 45.9559 52.2191 45.9814ZM54.8321 39.8521V26.3498C54.5711 26.2773 54.3045 26.2277 54.0353 26.2013C53.7062 26.1675 53.3757 26.151 53.045 26.1519C51.873 26.14 50.7146 26.4111 49.664 26.9432C48.6408 27.4641 47.7671 28.248 47.1284 29.2184C46.4908 30.1734 46.1611 31.4205 46.1393 32.9596L46.1382 33.1256C46.1146 34.2038 46.2866 35.2771 46.6453 36.291C46.9372 37.108 47.3986 37.8505 47.9978 38.4672C48.5713 39.0347 49.2657 39.458 50.0263 39.7037C50.8296 39.9701 51.6693 40.1037 52.5137 40.0996C52.9643 40.0996 53.3829 40.0829 53.7695 40.0499C54.0781 40.0261 54.3838 39.974 54.6831 39.8943L54.8321 39.8521Z" fill="#FF61F6"/>
</svg>
