<svg width="61" height="56" viewBox="0 0 61 56" fill="none" xmlns="http://www.w3.org/2000/svg">
<path d="M30.8649 37.8242H19.7077L17.4376 45.0453C17.3738 45.3169 17.1305 45.5038 16.858 45.4905H11.2069C10.8846 45.4905 10.7719 45.3091 10.8688 44.9464L20.5287 16.4579C20.6254 16.1612 20.722 15.8232 20.8186 15.4439C20.945 14.7841 21.0096 14.1134 21.0118 13.4409C20.9985 13.3456 21.0298 13.2494 21.0963 13.1813C21.1628 13.1131 21.2568 13.0811 21.3499 13.0946H29.0295C29.2545 13.0946 29.3833 13.1771 29.4159 13.342L40.3801 44.9958C40.4767 45.3258 40.38 45.4907 40.0902 45.4904H33.8112C33.5881 45.5158 33.3813 45.3675 33.3282 45.1442L30.8649 37.8242ZM21.4464 31.5924H29.0778L28.9693 31.2247L28.7944 30.6423L28.6699 30.2335L28.4711 29.5896L28.0483 28.2338L27.6765 27.0319L26.7111 23.9015C26.4627 23.096 26.2321 22.3148 26.0192 21.5577L25.8425 20.9215L25.636 20.1687L25.3209 19.0025C25.3011 18.9284 25.2815 18.8551 25.2622 18.7825H25.2139C24.9722 19.9698 24.6778 21.1452 24.3318 22.305L23.6152 24.6651L23.2209 25.9692L22.823 27.2894C22.7511 27.5279 22.6794 27.7637 22.6079 27.9967L22.3941 28.6875L22.1815 29.3619L21.97 30.0197L21.7597 30.6612C21.6898 30.8722 21.6201 31.0805 21.5506 31.2861L21.4464 31.5924ZM46.9 18.3374C45.9036 18.3783 44.9374 17.9826 44.2435 17.2493C43.5525 16.4852 43.1874 15.4706 43.2291 14.4301C43.1936 13.3985 43.5888 12.4002 44.3159 11.6851C45.0101 11.0027 45.9339 10.6223 46.8936 10.6205L46.9965 10.6217C48.1558 10.6217 49.0655 10.9762 49.7255 11.6851C50.3984 12.4292 50.7547 13.4168 50.7156 14.4301C50.7564 15.475 50.3817 16.4922 49.6772 17.2493C48.9649 17.9682 48.0003 18.3608 47.0032 18.3409L46.9 18.3374ZM43.5672 44.9958V21.3543C43.5672 21.0576 43.6955 20.9092 43.9536 20.9092H49.8946C50.152 20.9092 50.2808 21.0576 50.281 21.3543V44.9958C50.281 45.3258 50.1522 45.4907 49.8946 45.4904H44.002C43.7275 45.4904 43.5829 45.3425 43.5684 45.0465L43.5672 44.9958Z" fill="#FF9A00"/>
</svg>
