<svg width="47" height="44" viewBox="0 0 47 44" fill="none" xmlns="http://www.w3.org/2000/svg">
<path d="M6.29767 10.7655C8.57517 10.7322 10.3977 8.8648 10.3756 6.58717C10.3534 4.30955 8.49504 2.4779 6.21733 2.48879C3.93962 2.49977 2.09888 4.34917 2.09863 6.62691C2.1024 7.73387 2.54796 8.79352 3.33636 9.57057C4.12477 10.3476 5.19077 10.7778 6.29767 10.7655Z" fill="white"/>
<path d="M1.71443 34.6164C1.47601 35.6353 1.35141 36.6775 1.34291 37.7239C1.34291 41.3671 3.31859 43.7863 7.51763 43.7863C10.9995 43.7863 13.8248 41.7184 15.8552 38.3776L14.6139 43.36H21.5259L25.4802 27.52C26.468 23.5053 28.3803 21.4231 31.2834 21.4231C33.5672 21.4231 34.9871 22.8429 34.9871 25.1901C34.9983 25.9426 34.8944 26.6924 34.6789 27.4135L32.6427 34.697C32.3514 35.7001 32.2059 36.7398 32.2108 37.7844C32.2108 41.2404 34.2469 43.7748 38.5064 43.7748C42.1496 43.7748 45.0527 41.4304 46.6568 35.8116L43.941 34.7604C42.5816 38.5274 41.4095 39.2071 40.485 39.2071C39.5605 39.2071 39.0623 38.5908 39.0623 37.3552C39.089 36.7069 39.1924 36.064 39.3704 35.44L41.349 28.3408C41.7932 26.8814 42.0221 25.3649 42.0287 23.8394C42.0287 18.5287 38.8175 15.7581 34.9266 15.7581C31.2834 15.7581 27.5797 19.0442 25.7279 22.5031L27.0843 16.2938H16.5291L15.0459 21.7658H19.988L16.9467 33.9309C14.5563 39.2416 10.1672 39.328 9.61715 39.2042C8.71283 38.9997 8.13683 38.657 8.13683 37.4762C8.1632 36.5202 8.30831 35.5711 8.56883 34.6509L13.1999 16.2794H1.47251L-0.0078125 21.7514H4.86803L1.71443 34.6164Z" fill="white"/>
</svg>
