<svg width="55" height="56" viewBox="0 0 55 56" fill="none" xmlns="http://www.w3.org/2000/svg">
<mask id="mask0_66_22" style="mask-type:luminance" maskUnits="userSpaceOnUse" x="0" y="0" width="55" height="56">
<path d="M54.6842 0.969727H0.134888V55.519H54.6842V0.969727Z" fill="white"/>
</mask>
<g mask="url(#mask0_66_22)">
<path d="M27.4099 1.64474C12.3419 1.64474 0.134888 13.8617 0.134888 28.9197C0.134888 40.9767 7.9499 51.1957 18.7789 54.8017C20.1479 55.0587 20.6429 54.2147 20.6429 53.4857C20.6429 52.8377 20.6269 51.1247 20.6169 48.8507C13.0259 50.4937 11.4269 45.1837 11.4269 45.1837C10.1839 42.0397 8.3909 41.1967 8.3909 41.1967C5.9229 39.5107 8.58688 39.5467 8.58688 39.5467C11.3209 39.7317 12.7599 42.3507 12.7599 42.3507C15.1929 46.5237 19.1419 45.3167 20.7059 44.6147C20.9439 42.8567 21.6549 41.6477 22.4289 40.9747C16.3739 40.2907 10.0069 37.9477 10.0069 27.4957C10.0069 24.5107 11.0639 22.0807 12.8109 20.1707C12.5099 19.4877 11.5859 16.7087 13.0519 12.9517C13.0519 12.9517 15.3339 12.2237 20.5519 15.7487C22.7359 15.1437 25.0539 14.8427 27.3709 14.8267C29.6889 14.8427 32.0059 15.1457 34.1889 15.7487C39.3769 12.2237 41.6579 12.9517 41.6579 12.9517C43.1219 16.7087 42.1979 19.4857 41.9319 20.1707C43.6619 22.0807 44.7189 24.5127 44.7189 27.4957C44.7189 37.9707 38.3439 40.2807 32.2819 40.9477C33.2299 41.7637 34.1179 43.4427 34.1179 45.9917C34.1179 49.6397 34.0839 52.5787 34.0839 53.4667C34.0839 54.1757 34.5609 55.0277 35.9659 54.7537C46.8759 51.1857 54.6809 40.9577 54.6809 28.9177C54.6809 13.8607 42.4739 1.64273 27.4069 1.64273L27.4099 1.64474Z" fill="white"/>
</g>
</svg>
