<svg width="55" height="62" viewBox="0 0 55 62" fill="none" xmlns="http://www.w3.org/2000/svg">
<path d="M1.30571 0.0588379C0.738713 0.0588379 0.315717 0.520876 0.366717 1.08588L5.14873 54.7338C5.19973 55.2988 5.68773 55.8858 6.23473 56.0378L26.5307 61.6729C27.0777 61.8249 27.9717 61.8249 28.5187 61.6729L48.8767 56.0289C49.4237 55.8769 49.9127 55.2908 49.9627 54.7258L54.7537 1.08588C54.8047 0.520876 54.3807 0.0588379 53.8137 0.0588379H1.30571ZM44.5677 12.3629C44.5227 12.8669 44.4447 13.7418 44.3937 14.3068L44.2677 15.7139C44.2177 16.2789 44.1447 17.0868 44.1067 17.5098C44.0687 17.9318 44.0327 18.2778 44.0267 18.2778C44.0197 18.2778 43.5507 18.2778 42.9827 18.2778H28.5917C28.0237 18.2778 27.5547 18.2778 27.5487 18.2778C27.5427 18.2778 27.0737 18.2778 26.5057 18.2778H18.9267C18.3597 18.2778 17.9367 18.7399 17.9867 19.3049L18.4287 24.2468C18.4797 24.8118 18.9847 25.2739 19.5527 25.2739H26.5067C27.0737 25.2739 27.5427 25.2739 27.5487 25.2739C27.5557 25.2739 28.0247 25.2739 28.5917 25.2739H40.5447C41.1117 25.2739 41.9897 25.2739 42.4957 25.2739C43.0007 25.2739 43.3767 25.6869 43.3317 26.1909C43.2857 26.6949 43.2067 27.5698 43.1567 28.1348L41.7347 44.0668C41.6837 44.6318 41.6197 45.3538 41.5917 45.6708C41.5637 45.9878 41.0937 46.3718 40.5467 46.5228L28.5537 49.8489C28.0077 49.9999 27.5527 50.1258 27.5447 50.1268C27.5357 50.1288 27.0817 50.0069 26.5347 49.8549L14.5297 46.5239C13.9827 46.3719 13.4947 45.7848 13.4437 45.2198L12.6707 36.5458C12.6207 35.9808 13.0437 35.5189 13.6117 35.5189H14.7067C15.2747 35.5189 16.2027 35.5189 16.7697 35.5189H18.4037C18.9707 35.5189 19.4767 35.9808 19.5267 36.5458L19.8297 39.9418C19.8807 40.5068 20.3697 41.0899 20.9177 41.2379L26.5337 42.7548C27.0807 42.9028 27.5307 43.0239 27.5337 43.0239C27.5357 43.0239 27.9857 42.9018 28.5337 42.7538L34.1597 41.2338C34.7067 41.0858 35.1967 40.5029 35.2477 39.9379L35.8577 33.1348C35.9077 32.5698 35.4857 32.1078 34.9177 32.1078H28.5917C28.0247 32.1078 27.5557 32.1078 27.5487 32.1078C27.5427 32.1078 27.0737 32.1078 26.5067 32.1078H13.3057C12.7377 32.1078 12.2327 31.6448 12.1827 31.0798L10.6857 14.3068C10.6347 13.7418 10.5567 12.8669 10.5117 12.3629C10.4667 11.8589 10.8947 11.4459 11.4617 11.4459H26.5067C27.0737 11.4459 27.5427 11.4459 27.5487 11.4459C27.5557 11.4459 28.0247 11.4459 28.5917 11.4459H43.6177C44.1857 11.4459 44.6127 11.8589 44.5677 12.3629Z" fill="white"/>
</svg>
