<svg width="73" height="73" viewBox="0 0 73 73" fill="none" xmlns="http://www.w3.org/2000/svg">
<g clip-path="url(#clip0_31_68)">
<path d="M72.3394 0.207275H0.339355V72.2073H72.3394V0.207275Z" fill="#FF0066"/>
<path d="M24.8395 23.3769C27.117 23.3436 28.9395 21.4762 28.9174 19.1986C28.8953 16.921 27.0369 15.0893 24.7592 15.1002C22.4815 15.1112 20.6407 16.9606 20.6405 19.2383C20.6443 20.3453 21.0898 21.4049 21.8782 22.182C22.6666 22.959 23.7326 23.3892 24.8395 23.3769Z" fill="white"/>
<path d="M16.1333 45.5327C15.8948 46.5516 15.7702 47.5938 15.7617 48.6402C15.7617 52.2834 17.7374 54.7026 21.9365 54.7026C25.4184 54.7026 28.2437 52.6348 30.2741 49.294L29.0328 54.2764H35.9448L39.899 38.4364C40.8869 34.4217 42.7992 32.3394 45.7022 32.3394C47.986 32.3394 49.4059 33.7593 49.4059 36.1065C49.4172 36.859 49.3132 37.6088 49.0977 38.3298L47.0616 45.6133C46.7702 46.6164 46.6248 47.6562 46.6296 48.7007C46.6296 52.1567 48.6657 54.6911 52.9252 54.6911C56.5685 54.6911 59.4715 52.3468 61.0756 46.7279L58.3598 45.6767C57.0005 49.4437 55.8283 50.1234 54.9038 50.1234C53.9793 50.1234 53.4811 49.5071 53.4811 48.2716C53.5078 47.6233 53.6112 46.9804 53.7892 46.3564L55.7678 39.2572C56.212 37.7977 56.441 36.2813 56.4475 34.7558C56.4475 29.445 53.2363 26.6745 49.3454 26.6745C45.7022 26.6745 41.9985 29.9605 40.1467 33.4194L41.5032 27.2101H30.948L29.4648 32.6821H34.4069L31.3656 44.8473C28.9752 50.158 24.5861 50.2444 24.036 50.1205C23.1317 49.9161 22.5557 49.5733 22.5557 48.3925C22.582 47.4365 22.7271 46.4875 22.9877 45.5673L27.6187 27.1957H15.8913L14.411 32.6677H19.2869L16.1333 45.5327Z" fill="white"/>
</g>
<defs>
<clipPath id="clip0_31_68">
<rect x="0.339355" y="0.207275" width="72" height="72" rx="10" fill="white"/>
</clipPath>
</defs>
</svg>
