<svg width="72" height="51" viewBox="0 0 72 51" fill="none" xmlns="http://www.w3.org/2000/svg">
<g clip-path="url(#clip0_64_18)">
<path d="M55.1208 0.0323792C51.1988 0.0323792 46.3657 3.53008 40.2725 10.7312C38.803 12.5106 37.3553 14.3284 35.93 16.1837C34.7397 14.5375 33.2688 12.686 31.5877 10.7308C25.5645 3.5309 20.6617 0.0323792 16.8095 0.0323792C7.56394 0.0323792 0 11.2455 0 24.9277C0 38.7124 7.56394 49.823 16.8095 49.823C20.7315 49.823 25.5645 46.3253 31.6575 39.1238C33.127 37.3447 34.5747 35.5272 36 33.6721C37.1905 35.3183 38.6615 37.1698 40.3425 39.1246C46.4361 46.3257 51.2685 49.8234 55.1905 49.8234C64.4355 49.8234 72 38.6103 72 24.9281C71.9303 11.2455 64.3657 0.0323792 55.1208 0.0323792ZM26.2645 29.2483C19.8914 36.6551 17.2299 37.067 16.8095 37.067C12.3272 37.067 8.685 31.6141 8.685 24.9277C8.685 18.2409 12.3272 12.7884 16.8095 12.7884C17.2997 12.7884 19.8911 13.1999 26.2648 20.6071C27.5254 22.0472 28.7162 23.5905 29.6966 24.9277C28.6462 26.2649 27.5254 27.7054 26.2648 29.2487L26.2645 29.2483ZM38.5214 30.7912L32.708 30.2769L32.218 22.0472L35.8602 16.2865L36.2804 24.5163L42.1639 25.0306L38.5214 30.7912ZM55.1208 37.067C54.6306 37.067 52.0391 36.6555 45.6654 29.2483C44.4049 27.8078 43.2138 26.2649 42.2336 24.9273C43.2143 23.5905 44.4049 22.15 45.5957 20.71C51.9691 13.1999 54.6306 12.7888 55.0507 12.7888C59.5333 12.7888 63.1752 18.2417 63.1752 24.9281C63.245 31.6145 59.6031 37.067 55.1208 37.067Z" fill="#BC1B23"/>
</g>
<defs>
<clipPath id="clip0_64_18">
<rect width="72" height="50" fill="white" transform="translate(0 0.0247803)"/>
</clipPath>
</defs>
</svg>
