<svg width="72" height="73" viewBox="0 0 72 73" fill="none" xmlns="http://www.w3.org/2000/svg">
<g clip-path="url(#clip0_64_16)">
<path d="M71.6929 62.6984C71.6929 57.5706 67.5901 53.263 62.2576 53.263C56.9251 53.263 52.8222 57.3659 52.8222 62.6984C52.8222 68.0309 56.9228 72.1337 62.2576 72.1337C67.5923 72.1337 71.6929 67.825 71.6929 62.6984ZM62.4601 19.0056C57.3323 19.0056 53.0247 14.9027 53.0247 9.57023C53.0247 4.23773 57.1276 0.133728 62.4601 0.133728C67.7926 0.133728 71.8954 4.2366 71.8954 9.5691C71.8954 14.9016 67.5867 19.0056 62.4601 19.0056ZM45.2307 62.6984C45.2307 67.8261 41.1278 72.1337 35.7953 72.1337C30.6675 72.1337 26.3599 68.0309 26.3599 62.6984C26.3599 53.263 18.5637 45.4679 9.12942 45.4679C4.2053 45.4667 0.112549 41.365 0.112549 36.2462C0.112549 31.1275 4.21542 26.8109 9.54792 26.8109C18.9833 26.8109 26.7784 19.0146 26.7784 9.58035C26.5647 4.44248 30.8723 0.338478 36 0.338478C41.1278 0.338478 45.2307 4.44135 45.2307 9.77385C45.2307 15.1064 41.1278 19.2092 35.7953 19.2092C26.3599 19.2092 18.5648 27.0055 18.5648 36.4397C18.5648 45.874 26.154 53.6837 35.7953 53.6837C41.1278 53.2731 45.2307 57.5807 45.2307 62.7096V62.6984Z" fill="#DE8B30"/>
</g>
<defs>
<clipPath id="clip0_64_16">
<rect width="72" height="72" fill="white" transform="translate(0 0.133728)"/>
</clipPath>
</defs>
</svg>
