<svg width="73" height="73" viewBox="0 0 73 73" fill="none" xmlns="http://www.w3.org/2000/svg">
<g clip-path="url(#clip0_31_45)">
<path d="M36.3394 0.207275L16.0486 2.57459L0.339355 25.8439L36.3394 72.1024L72.3394 25.8439L56.6304 2.57459L36.3394 0.207275Z" fill="#FDB300"/>
<path d="M0.339355 25.8441L36.3394 72.1023L14.921 25.8441H0.339355Z" fill="#EB6C00"/>
<path d="M57.7574 25.8441L36.3394 72.1023L72.3391 25.8441H57.7574Z" fill="#EB6C00"/>
<path d="M14.9211 25.8441L36.3395 72.1023L57.7578 25.8441H14.9211Z" fill="#FDAD00"/>
<path d="M16.0485 2.57486L14.921 25.8442L36.3393 0.20755L16.0485 2.57486Z" fill="#FDD231"/>
<path d="M57.7574 25.8441L56.6302 2.57446L36.3394 0.207458L57.7574 25.8441Z" fill="#FDD231"/>
<path d="M57.7577 25.8441H72.3391L56.6302 2.57446L57.7577 25.8441Z" fill="#FDAD00"/>
<path d="M0.339355 25.8441H14.921L16.0486 2.57446L0.339355 25.8441Z" fill="#FDAD00"/>
<path d="M36.3393 0.20755L14.921 25.8442H57.7576L36.3393 0.20755Z" fill="#FEEEB7"/>
</g>
<defs>
<clipPath id="clip0_31_45">
<rect width="72" height="72" fill="white" transform="translate(0.339355 0.207275)"/>
</clipPath>
</defs>
</svg>
