<svg width="33" height="37" viewBox="0 0 33 37" fill="none" xmlns="http://www.w3.org/2000/svg">
<path d="M25.7488 30.3481V14.4054C18.1088 12.2654 17.6128 20.426 17.6374 22.235C17.793 26.9844 19.3301 31.8105 25.7488 30.3481ZM32.6531 1.23101V30.5331C32.7293 32.8062 33.1709 33.4689 32.8018 33.823C28.7494 36.2668 19.0896 37.218 15.3626 33.8214C4.93345 24.043 12.4588 6.45186 25.7488 8.89315V1.23118C25.7485 1.10923 25.8586 0.983413 25.9966 0.984288H32.407C32.5335 0.983462 32.6527 1.10923 32.6531 1.2304V1.23101ZM7.18314 35.6056H0.709927C0.586665 35.6049 0.461157 35.4801 0.462164 35.3578V1.23104C0.461173 1.11039 0.586665 0.984569 0.709927 0.985445H7.18314C7.30818 0.984619 7.43077 1.11038 7.4309 1.23233V35.3591C7.43077 35.4814 7.30818 35.6063 7.18314 35.6069V35.6056Z" fill="white"/>
</svg>
